<svg width="766" height="700" viewBox="0 0 766 700" fill="none" xmlns="http://www.w3.org/2000/svg">
<path d="M59.4914 362.132L383 700L706.511 362.132C744.6 322.349 766 268.393 766 212.132V202.617C766 90.715 679.14 0 571.996 0C513.057 0 457.318 27.9795 420.501 76.043L383 125L345.499 76.043C308.682 27.9795 252.942 0 194.006 0C86.8596 0 0 90.715 0 202.617V212.132C0 268.393 21.3996 322.349 59.4914 362.132Z" fill="#A1745F"/>
<path d="M387.8 495.4C367.8 495.4 349.933 491.267 334.2 483C318.733 474.733 306.6 462.467 297.8 446.2C289.267 429.667 285 409.133 285 384.6C285 368.867 286.733 352.867 290.2 336.6C293.667 320.067 299.133 304.333 306.6 289.4C314.333 274.2 324.2 260.733 336.2 249C348.2 237 362.733 227.667 379.8 221C396.867 214.067 416.6 210.6 439 210.6C452.067 210.6 464.467 211.8 476.2 214.2C487.933 216.6 497.933 220.6 506.2 226.2L492.6 249.4C485.133 244.333 476.6 240.867 467 239C457.4 236.867 447.533 235.8 437.4 235.8C420.067 235.8 404.733 238.6 391.4 244.2C378.333 249.533 367 256.867 357.4 266.2C348.067 275.267 340.333 285.8 334.2 297.8C328.067 309.533 323.4 322.067 320.2 335.4C317.267 348.467 315.667 361.533 315.4 374.6C315.133 381 315 385.933 315 389.4C315 392.6 315 395.533 315 398.2L303 395.4C307.533 378.333 314.6 364.733 324.2 354.6C333.8 344.2 345.133 336.733 358.2 332.2C371.267 327.667 384.867 325.4 399 325.4C415.8 325.4 430.867 328.467 444.2 334.6C457.8 340.733 468.6 349.667 476.6 361.4C484.867 373.133 489 387.4 489 404.2C489 422.867 484.6 439.133 475.8 453C467.267 466.6 455.4 477.133 440.2 484.6C425 491.8 407.533 495.4 387.8 495.4ZM387.4 471C409 471 426.467 465.267 439.8 453.8C453.133 442.333 459.8 426.467 459.8 406.2C459.8 387.8 453.533 373.8 441 364.2C428.467 354.6 412.467 349.8 393 349.8C378.067 349.8 364.867 352.6 353.4 358.2C342.2 363.8 333.4 371.4 327 381C320.867 390.6 317.8 401.4 317.8 413.4C317.8 422.733 320.333 431.933 325.4 441C330.733 449.8 338.6 457 349 462.6C359.4 468.2 372.2 471 387.4 471Z" fill="#FFCCA8"/>
</svg>
